<svg xmlns="http://www.w3.org/2000/svg" width="512" height="512" viewBox="0 0 512 512">
  <defs>
    <linearGradient id="bgm" x1="0" y1="0" x2="1" y2="1">
      <stop offset="0%" stop-color="#FF6B35"/>
      <stop offset="100%" stop-color="#E84E1B"/>
    </linearGradient>
    <linearGradient id="ballm" x1="0.3" y1="0" x2="0.7" y2="1">
      <stop offset="0%" stop-color="#ffffff"/>
      <stop offset="100%" stop-color="#f0e8dd"/>
    </linearGradient>
  </defs>
  <!-- Full bleed background for maskable -->
  <rect width="512" height="512" fill="url(#bgm)"/>
  <!-- Volleyball centered in safe zone (80% = 410px, centered) -->
  <circle cx="256" cy="230" r="100" fill="url(#ballm)"/>
  <path d="M156 230 C190 195, 322 195, 356 230" fill="none" stroke="#FF6B35" stroke-width="4.5" opacity="0.4"/>
  <path d="M156 230 C190 265, 322 265, 356 230" fill="none" stroke="#FF6B35" stroke-width="4.5" opacity="0.4"/>
  <path d="M256 130 C225 175, 225 285, 256 330" fill="none" stroke="#FF6B35" stroke-width="4.5" opacity="0.4"/>
  <!-- Flame -->
  <path d="M196 350 Q210 328, 224 340 Q238 315, 256 332 Q274 315, 288 340 Q302 328, 316 350 Q288 372, 256 370 Q224 372, 196 350Z" fill="white" opacity="0.85"/>
</svg>
